<svg xmlns="http://www.w3.org/2000/svg" xmlns:xlink="http://www.w3.org/1999/xlink" width="800" zoomAndPan="magnify" viewBox="0 0 600 299.999988" height="400" preserveAspectRatio="xMidYMid meet" version="1.0"><defs><g/><clipPath id="24e4630776"><path d="M 65.507812 78 L 157 78 L 157 204 L 65.507812 204 Z M 65.507812 78 " clip-rule="nonzero"/></clipPath><clipPath id="08680fa323"><path d="M 165 63.089844 L 170.507812 63.089844 L 170.507812 240.839844 L 165 240.839844 Z M 165 63.089844 " clip-rule="nonzero"/></clipPath><clipPath id="acb86ea021"><rect x="0" width="331" y="0" height="119"/></clipPath><clipPath id="77bfe10d70"><rect x="0" width="295" y="0" height="42"/></clipPath></defs><g clip-path="url(#24e4630776)"><path fill="#9b785f" d="M 65.582031 111.273438 L 65.582031 192.320312 C 65.582031 198.679688 70.785156 203.882812 77.144531 203.882812 L 117.429688 203.882812 C 111.035156 195.546875 107.234375 185.117188 107.234375 173.804688 C 107.234375 146.488281 129.375 124.347656 156.691406 124.347656 L 156.691406 78.898438 L 138.921875 78.898438 C 135.039062 78.898438 131.453125 80.96875 129.511719 84.328125 L 120.628906 99.71875 L 77.144531 99.71875 C 70.785156 99.71875 65.582031 104.917969 65.582031 111.273438 Z M 79.132812 111.414062 C 79.132812 110.492188 79.890625 109.742188 80.808594 109.742188 L 107.082031 109.742188 C 108.003906 109.742188 108.757812 110.496094 108.757812 111.414062 L 108.757812 118.125 C 108.757812 119.046875 108 119.796875 107.082031 119.796875 L 80.8125 119.796875 C 79.890625 119.796875 79.136719 119.042969 79.136719 118.125 L 79.136719 111.414062 Z M 79.132812 111.414062 " fill-opacity="1" fill-rule="nonzero"/></g><path fill="#9b785f" d="M 151.816406 141.382812 C 150.292969 141.605469 148.808594 141.933594 147.359375 142.363281 C 151.382812 145.027344 154.039062 149.601562 154.039062 154.792969 C 154.039062 163.019531 147.371094 169.691406 139.140625 169.691406 C 133.613281 169.691406 128.789062 166.671875 126.21875 162.199219 C 125.46875 164.242188 124.921875 166.386719 124.597656 168.601562 C 121.675781 188.679688 137.167969 205.914062 156.6875 205.914062 L 156.6875 215.328125 C 145.503906 215.328125 134.992188 210.976562 127.089844 203.070312 C 119.183594 195.167969 114.832031 184.65625 114.832031 173.476562 C 114.832031 162.292969 119.183594 151.78125 127.089844 143.878906 C 134.992188 135.976562 145.503906 131.621094 156.6875 131.621094 L 156.6875 141.039062 C 155.085938 141.027344 153.460938 141.144531 151.816406 141.382812 Z M 151.816406 141.382812 " fill-opacity="1" fill-rule="nonzero"/><g clip-path="url(#08680fa323)"><path fill="#9b785f" d="M 165.972656 63.089844 L 170.605469 63.089844 L 170.605469 240.96875 L 165.972656 240.96875 Z M 165.972656 63.089844 " fill-opacity="1" fill-rule="nonzero"/></g><g transform="matrix(1, 0, 0, 1, 216, 56)"><g clip-path="url(#acb86ea021)"><g fill="#9b785f" fill-opacity="1"><g transform="translate(1.181684, 84.996606)"><g><path d="M 70.171875 0 L 66.484375 -46.25 L 66.015625 -46.25 L 50.03125 -0.46875 L 39.4375 -0.46875 L 23.453125 -46.25 L 22.984375 -46.25 L 19.296875 0 L 1.515625 0 L 8.515625 -78.03125 L 27.421875 -78.03125 L 44.734375 -33 L 62.046875 -78.03125 L 80.953125 -78.03125 L 87.953125 0 Z M 70.171875 0 "/></g></g></g><g fill="#9b785f" fill-opacity="1"><g transform="translate(86.757295, 84.996606)"><g><path d="M 8.984375 -6 C 4.441406 -10.957031 2.171875 -17.03125 2.171875 -24.21875 C 2.171875 -31.40625 4.441406 -37.488281 8.984375 -42.46875 C 13.523438 -47.445312 19.296875 -49.9375 26.296875 -49.9375 C 32.722656 -49.9375 38.019531 -47.921875 42.1875 -43.890625 L 42.1875 -48.515625 L 58.921875 -48.515625 L 58.921875 0 L 42.375 0 L 42.375 -5.484375 L 42.1875 -5.484375 C 38.019531 -0.878906 32.722656 1.421875 26.296875 1.421875 C 19.296875 1.421875 13.523438 -1.050781 8.984375 -6 Z M 23.21875 -32.4375 C 21.039062 -30.289062 19.953125 -27.546875 19.953125 -24.203125 C 19.953125 -20.867188 20.992188 -18.144531 23.078125 -16.03125 C 25.160156 -13.914062 27.90625 -12.859375 31.3125 -12.859375 C 34.582031 -12.859375 37.273438 -13.929688 39.390625 -16.078125 C 41.503906 -18.222656 42.5625 -20.9375 42.5625 -24.21875 C 42.5625 -27.550781 41.472656 -30.289062 39.296875 -32.4375 C 37.117188 -34.582031 34.457031 -35.65625 31.3125 -35.65625 C 28.09375 -35.65625 25.394531 -34.582031 23.21875 -32.4375 Z M 23.21875 -32.4375 "/></g></g></g><g fill="#9b785f" fill-opacity="1"><g transform="translate(147.463647, 84.996606)"><g><path d="M 3.5 11.921875 L 17.21875 5.203125 C 19.738281 9.359375 24.117188 11.4375 30.359375 11.4375 C 33.253906 11.4375 35.945312 10.503906 38.4375 8.640625 C 40.9375 6.785156 42.1875 3.9375 42.1875 0.09375 L 42.1875 -3.5 C 39.21875 -0.21875 33.921875 1.421875 26.296875 1.421875 C 19.296875 1.421875 13.523438 -1.050781 8.984375 -6 C 4.441406 -10.957031 2.171875 -17.03125 2.171875 -24.21875 C 2.171875 -31.40625 4.441406 -37.488281 8.984375 -42.46875 C 13.523438 -47.445312 19.296875 -49.9375 26.296875 -49.9375 C 32.535156 -49.9375 37.734375 -48.015625 41.890625 -44.171875 L 42.1875 -44.171875 L 42.1875 -48.515625 L 58.921875 -48.515625 L 58.921875 1.328125 C 58.921875 9.203125 56.300781 15.285156 51.0625 19.578125 C 45.832031 23.867188 38.929688 26.015625 30.359375 26.015625 C 16.484375 26.015625 7.53125 21.316406 3.5 11.921875 Z M 23.21875 -32.4375 C 21.039062 -30.289062 19.953125 -27.546875 19.953125 -24.203125 C 19.953125 -20.867188 20.992188 -18.144531 23.078125 -16.03125 C 25.160156 -13.914062 27.90625 -12.859375 31.3125 -12.859375 C 34.582031 -12.859375 37.273438 -13.929688 39.390625 -16.078125 C 41.503906 -18.222656 42.5625 -20.9375 42.5625 -24.21875 C 42.5625 -27.550781 41.472656 -30.289062 39.296875 -32.4375 C 37.117188 -34.582031 34.457031 -35.65625 31.3125 -35.65625 C 28.09375 -35.65625 25.394531 -34.582031 23.21875 -32.4375 Z M 23.21875 -32.4375 "/></g></g></g><g fill="#9b785f" fill-opacity="1"><g transform="translate(208.17, 84.996606)"><g><path d="M 8.984375 -6 C 4.441406 -10.957031 2.171875 -17.03125 2.171875 -24.21875 C 2.171875 -31.40625 4.441406 -37.488281 8.984375 -42.46875 C 13.523438 -47.445312 19.296875 -49.9375 26.296875 -49.9375 C 32.722656 -49.9375 38.019531 -47.921875 42.1875 -43.890625 L 42.1875 -81.34375 L 58.921875 -81.34375 L 58.921875 0 L 42.375 0 L 42.375 -5.484375 L 42.1875 -5.484375 C 38.019531 -0.878906 32.722656 1.421875 26.296875 1.421875 C 19.296875 1.421875 13.523438 -1.050781 8.984375 -6 Z M 23.21875 -32.4375 C 21.039062 -30.289062 19.953125 -27.546875 19.953125 -24.203125 C 19.953125 -20.867188 20.992188 -18.144531 23.078125 -16.03125 C 25.160156 -13.914062 27.90625 -12.859375 31.3125 -12.859375 C 34.582031 -12.859375 37.273438 -13.929688 39.390625 -16.078125 C 41.503906 -18.222656 42.5625 -20.9375 42.5625 -24.21875 C 42.5625 -27.550781 41.472656 -30.289062 39.296875 -32.4375 C 37.117188 -34.582031 34.457031 -35.65625 31.3125 -35.65625 C 28.09375 -35.65625 25.394531 -34.582031 23.21875 -32.4375 Z M 23.21875 -32.4375 "/></g></g></g><g fill="#9b785f" fill-opacity="1"><g transform="translate(268.876353, 84.996606)"><g><path d="M 8.984375 -6 C 4.441406 -10.957031 2.171875 -17.03125 2.171875 -24.21875 C 2.171875 -31.40625 4.441406 -37.488281 8.984375 -42.46875 C 13.523438 -47.445312 19.296875 -49.9375 26.296875 -49.9375 C 32.722656 -49.9375 38.019531 -47.921875 42.1875 -43.890625 L 42.1875 -48.515625 L 58.921875 -48.515625 L 58.921875 0 L 42.375 0 L 42.375 -5.484375 L 42.1875 -5.484375 C 38.019531 -0.878906 32.722656 1.421875 26.296875 1.421875 C 19.296875 1.421875 13.523438 -1.050781 8.984375 -6 Z M 23.21875 -32.4375 C 21.039062 -30.289062 19.953125 -27.546875 19.953125 -24.203125 C 19.953125 -20.867188 20.992188 -18.144531 23.078125 -16.03125 C 25.160156 -13.914062 27.90625 -12.859375 31.3125 -12.859375 C 34.582031 -12.859375 37.273438 -13.929688 39.390625 -16.078125 C 41.503906 -18.222656 42.5625 -20.9375 42.5625 -24.21875 C 42.5625 -27.550781 41.472656 -30.289062 39.296875 -32.4375 C 37.117188 -34.582031 34.457031 -35.65625 31.3125 -35.65625 C 28.09375 -35.65625 25.394531 -34.582031 23.21875 -32.4375 Z M 23.21875 -32.4375 "/></g></g></g></g></g><g transform="matrix(1, 0, 0, 1, 246, 176)"><g clip-path="url(#77bfe10d70)"><g fill="#9b785f" fill-opacity="1"><g transform="translate(0.681701, 29.475076)"><g><path d="M 24.265625 0 L 22.984375 -15.984375 L 22.828125 -15.984375 L 17.296875 -0.15625 L 13.640625 -0.15625 L 8.109375 -15.984375 L 7.953125 -15.984375 L 6.671875 0 L 0.515625 0 L 2.9375 -26.984375 L 9.484375 -26.984375 L 15.46875 -11.40625 L 21.453125 -26.984375 L 28 -26.984375 L 30.40625 0 Z M 24.265625 0 "/></g></g></g><g fill="#9b785f" fill-opacity="1"><g transform="translate(50.058329, 29.475076)"><g><path d="M 0.75 -13.5 C 0.75 -17.40625 2.078125 -20.707031 4.734375 -23.40625 C 7.398438 -26.113281 10.609375 -27.46875 14.359375 -27.46875 C 18.128906 -27.46875 21.332031 -26.117188 23.96875 -23.421875 C 26.601562 -20.734375 27.921875 -17.425781 27.921875 -13.5 C 27.921875 -9.5625 26.625 -6.242188 24.03125 -3.546875 C 21.4375 -0.859375 18.210938 0.484375 14.359375 0.484375 C 10.410156 0.484375 7.15625 -0.847656 4.59375 -3.515625 C 2.03125 -6.179688 0.75 -9.507812 0.75 -13.5 Z M 7.390625 -13.5 C 7.390625 -12.082031 7.609375 -10.789062 8.046875 -9.625 C 8.484375 -8.457031 9.242188 -7.472656 10.328125 -6.671875 C 11.421875 -5.867188 12.765625 -5.46875 14.359375 -5.46875 C 16.648438 -5.46875 18.378906 -6.25 19.546875 -7.8125 C 20.710938 -9.382812 21.296875 -11.28125 21.296875 -13.5 C 21.296875 -15.707031 20.695312 -17.597656 19.5 -19.171875 C 18.3125 -20.753906 16.597656 -21.546875 14.359375 -21.546875 C 12.128906 -21.546875 10.410156 -20.753906 9.203125 -19.171875 C 7.992188 -17.597656 7.390625 -15.707031 7.390625 -13.5 Z M 7.390625 -13.5 "/></g></g></g><g fill="#9b785f" fill-opacity="1"><g transform="translate(97.178692, 29.475076)"><g><path d="M 8.109375 -16.75 L 8.109375 0 L 1.96875 0 L 1.96875 -26.984375 L 8.109375 -26.984375 L 18.84375 -10.234375 L 18.90625 -10.234375 L 18.90625 -26.984375 L 25.046875 -26.984375 L 25.046875 0 L 18.90625 0 L 8.171875 -16.75 Z M 8.109375 -16.75 "/></g></g></g><g fill="#9b785f" fill-opacity="1"><g transform="translate(142.631391, 29.475076)"><g><path d="M 0.265625 -21.578125 L 0.265625 -26.984375 L 19.234375 -26.984375 L 19.234375 -21.578125 L 12.8125 -21.578125 L 12.8125 0 L 6.671875 0 L 6.671875 -21.578125 Z M 0.265625 -21.578125 "/></g></g></g><g fill="#9b785f" fill-opacity="1"><g transform="translate(180.563212, 29.475076)"><g><path d="M 22.703125 -26.984375 L 22.703125 -9.578125 C 22.703125 -6.265625 21.804688 -3.757812 20.015625 -2.0625 C 18.222656 -0.363281 15.601562 0.484375 12.15625 0.484375 C 8.71875 0.484375 6.101562 -0.363281 4.3125 -2.0625 C 2.53125 -3.757812 1.640625 -6.265625 1.640625 -9.578125 L 1.640625 -26.984375 L 7.78125 -26.984375 L 7.78125 -11.375 C 7.78125 -9.195312 8.125 -7.679688 8.8125 -6.828125 C 9.5 -5.984375 10.613281 -5.5625 12.15625 -5.5625 C 13.707031 -5.5625 14.828125 -5.984375 15.515625 -6.828125 C 16.203125 -7.679688 16.546875 -9.195312 16.546875 -11.375 L 16.546875 -26.984375 Z M 22.703125 -26.984375 "/></g></g></g><g fill="#9b785f" fill-opacity="1"><g transform="translate(223.334554, 29.475076)"><g><path d="M 13.703125 -26.984375 L 13.703125 -7.625 C 13.703125 -4.976562 12.976562 -2.960938 11.53125 -1.578125 C 10.082031 -0.203125 8.003906 0.484375 5.296875 0.484375 C 4.578125 0.484375 3.867188 0.394531 3.171875 0.21875 C 2.472656 0.0507812 1.882812 -0.15625 1.40625 -0.40625 C 0.925781 -0.65625 0.492188 -0.910156 0.109375 -1.171875 C -0.265625 -1.429688 -0.539062 -1.648438 -0.71875 -1.828125 L -1.015625 -2.09375 L 0.953125 -7.234375 C 2.234375 -6.003906 3.398438 -5.390625 4.453125 -5.390625 C 5.390625 -5.390625 6.140625 -5.703125 6.703125 -6.328125 C 7.265625 -6.953125 7.546875 -7.90625 7.546875 -9.1875 L 7.546875 -26.984375 Z M 13.703125 -26.984375 "/></g></g></g><g fill="#9b785f" fill-opacity="1"><g transform="translate(257.113535, 29.475076)"><g><path d="M 17.390625 -26.984375 L 17.390625 -21.578125 L 8.109375 -21.578125 L 8.109375 -16.21875 L 17 -16.21875 L 17 -10.828125 L 8.109375 -10.828125 L 8.109375 -5.390625 L 17.390625 -5.390625 L 17.390625 0 L 1.96875 0 L 1.96875 -26.984375 Z M 17.390625 -26.984375 "/></g></g></g></g></g></svg>